HIERARCHY
ROOT Hips
{
	OFFSET 0.000000 0.000000 0.000000 
	CHANNELS 6 Xposition Yposition Zposition Zrotation Yrotation Xrotation
	JOINT LeftUpLeg
	{
		OFFSET 1.363060 -1.794630 0.839290 
		CHANNELS 3 Zrotation Yrotation Xrotation
		JOINT LeftLeg
		{
			OFFSET 2.448110 -6.726130 0.000000 
			CHANNELS 3 Zrotation Yrotation Xrotation
			JOINT LeftFoot
			{
				OFFSET 2.562200 -7.039590 0.000000 
				CHANNELS 3 Zrotation Yrotation Xrotation
				JOINT LeftToeBase
				{
					OFFSET 0.157640 -0.433110 2.322550 
					CHANNELS 3 Zrotation Yrotation Xrotation
					End Site
					{
						OFFSET 0.000000 0.000000 0.000000 
					}
				}
			}
		}
	}
	JOINT RightUpLeg
	{
		OFFSET -1.305520 -1.794630 0.839290 
		CHANNELS 3 Zrotation Yrotation Xrotation
		JOINT RightLeg
		{
			OFFSET -2.542530 -6.985550 0.000000 
			CHANNELS 3 Zrotation Yrotation Xrotation
			JOINT RightFoot
			{
				OFFSET -2.568260 -7.056230 0.000000 
				CHANNELS 3 Zrotation Yrotation Xrotation
				JOINT RightToeBase
				{
					OFFSET -0.164730 -0.452590 2.363150 
					CHANNELS 3 Zrotation Yrotation Xrotation
					End Site
					{
						OFFSET 0.000000 0.000000 0.000000 
					}
				}
			}
		}
	}
	JOINT Spine
	{
		OFFSET 0.028270 2.035590 -0.193380 
		CHANNELS 3 Zrotation Yrotation Xrotation
		JOINT Spine1
		{
			OFFSET 0.056720 2.048850 -0.042750 
			CHANNELS 3 Zrotation Yrotation Xrotation
			JOINT Neck1
			{
				OFFSET -0.054170 1.746240 0.172020 
				CHANNELS 3 Zrotation Yrotation Xrotation
				JOINT Head
				{
					OFFSET 0.104070 1.761360 -0.123970 
					CHANNELS 3 Zrotation Yrotation Xrotation
					End Site
					{
						OFFSET 0.000000 0.000000 0.000000 
					}
				}
			}
			JOINT LeftArm
			{
				OFFSET 3.362410 1.200890 -0.311210 
				CHANNELS 3 Zrotation Yrotation Xrotation
				JOINT LeftForeArm
				{
					OFFSET 4.983000 -0.000000 -0.000000 
					CHANNELS 3 Zrotation Yrotation Xrotation
					JOINT LeftHand
					{
						OFFSET 3.483560 -0.000000 -0.000000 
						CHANNELS 3 Zrotation Yrotation Xrotation
						JOINT LeftHandIndex1
						{
							OFFSET 0.715260 -0.000000 -0.000000 
							CHANNELS 3 Zrotation Yrotation Xrotation
							End Site
							{
								OFFSET 0.000000 0.000000 0.000000 
							}
						}
					}
				}
			}
			JOINT RightArm
			{
				OFFSET -3.136600 1.374050 -0.404650 
				CHANNELS 3 Zrotation Yrotation Xrotation
				JOINT RightForeArm
				{
					OFFSET -5.241900 -0.000000 -0.000000 
					CHANNELS 3 Zrotation Yrotation Xrotation
					JOINT RightHand
					{
						OFFSET -3.444170 -0.000000 -0.000000 
						CHANNELS 3 Zrotation Yrotation Xrotation
						JOINT RightHandIndex1
						{
							OFFSET -0.622530 -0.000000 -0.000000 
							CHANNELS 3 Zrotation Yrotation Xrotation
							End Site
							{
								OFFSET 0.000000 0.000000 0.000000 
							}
						}
					}
				}
			}
		}
	}
}
MOTION
Frames: 15
Frame Time: 0.041667
0.502358 17.828451 -14.116728 -1.731500 -1.914445 7.191807 -14.985967 1.962985 -14.970568 -0.242445 6.126378 16.876028 -1.016675 6.603682 -2.111179 0.098700 2.026400 5.578600 19.864012 2.331305 -14.222864 -0.591919 -7.353325 20.762069 -0.072648 -1.472763 -6.064936 -0.444000 -4.275500 11.853100 1.325762 -0.441031 -1.864267 0.672449 -0.565421 8.850554 3.564284 -0.362202 34.389785 0.995000 0.388200 13.180200 -96.222342 -5.871365 27.772800 7.199025 -16.429843 -1.077010 -0.054817 -0.713035 2.260937 -7.125000 0.000000 0.000000 93.800549 4.452089 9.621244 -9.293793 20.845581 -1.947081 0.641027 0.923895 34.878028 7.125000 0.000000 0.000000 
0.502965 17.828248 -14.117842 -1.730985 -1.877544 7.203843 -14.983171 1.930069 -14.979054 -0.243584 6.125461 16.871873 -1.017115 6.605591 -2.095136 0.097700 2.016200 5.550300 19.864131 2.333095 -14.238906 -0.592901 -7.356391 20.769206 -0.067400 -1.507630 -6.078820 -0.443600 -4.273300 11.846700 1.328390 -0.458694 -1.861839 0.682954 -0.575031 8.858124 3.616080 -0.328134 34.362584 1.027100 0.405200 13.150000 -96.280348 -5.951270 27.946766 7.222026 -16.466709 -1.083516 -0.055806 -0.712629 2.144533 -7.125000 0.000000 0.000000 93.818044 4.504246 9.932581 -9.351242 20.936663 -1.967461 0.641427 0.923793 34.601346 7.125000 0.000000 0.000000 
0.504079 17.828349 -14.117133 -1.730127 -1.882405 7.198007 -14.987310 1.916659 -14.966212 -0.244004 6.124039 16.867672 -1.020888 6.623454 -2.099061 0.097400 2.012700 5.540800 19.858310 2.326068 -14.233290 -0.593396 -7.356799 20.771790 -0.069634 -1.494061 -6.080428 -0.443100 -4.271000 11.840400 1.326706 -0.451605 -1.865411 0.675080 -0.571200 8.846111 3.577507 -0.369487 34.397728 0.998900 0.387100 13.177100 -96.339658 -6.002193 28.109513 7.241974 -16.496828 -1.088282 -0.056353 -0.712632 2.077064 -7.125000 0.000000 0.000000 93.852948 4.541349 10.138333 -9.401071 21.014808 -1.986244 0.637200 0.925705 34.442574 7.125000 0.000000 0.000000 
0.505698 17.828147 -14.116121 -1.730875 -1.893772 7.194807 -14.994743 1.930210 -14.960050 -0.244036 6.123046 16.865477 -1.021554 6.626540 -2.101436 0.097400 2.012200 5.539400 19.853019 2.315842 -14.231830 -0.593706 -7.357360 20.773619 -0.071995 -1.480411 -6.082329 -0.437200 -4.242700 11.760500 1.325030 -0.447292 -1.862993 0.667504 -0.568808 8.851550 3.558882 -0.367018 34.413273 0.989500 0.387800 13.187700 -96.399724 -6.064651 28.334148 7.297251 -16.590698 -1.104041 -0.056526 -0.713110 1.930007 -7.125000 0.000000 0.000000 93.914173 4.646322 10.242360 -9.435298 21.064741 -2.000143 0.634965 0.923781 34.440979 7.125000 0.000000 0.000000 
0.506811 17.828147 -14.115615 -1.730627 -1.894507 7.194754 -14.999407 1.930469 -14.955688 -0.244667 6.120999 16.859517 -1.022146 6.629622 -2.100381 0.097100 2.009500 5.532000 19.848578 2.312271 -14.231735 -0.593952 -7.357747 20.774815 -0.072293 -1.479143 -6.083802 -0.434900 -4.231800 11.729700 1.323405 -0.443762 -1.862633 0.661156 -0.566818 8.851128 3.553128 -0.374172 34.425111 0.984800 0.385100 13.193900 -96.457920 -6.128224 28.554412 7.343448 -16.668446 -1.117212 -0.055637 -0.713442 1.797938 -7.125000 0.000000 0.000000 93.964442 4.715631 10.436825 -9.485401 21.141875 -2.019383 0.632612 0.923174 34.323445 7.125000 0.000000 0.000000 
0.507924 17.828147 -14.115008 -1.730336 -1.897349 7.194302 -15.004601 1.933346 -14.953778 -0.244697 6.120684 16.859012 -1.022287 6.630264 -2.103720 0.096800 2.006900 5.524700 19.844097 2.309527 -14.228798 -0.593517 -7.356478 20.771453 -0.072559 -1.477602 -6.082255 -0.432900 -4.222300 11.702900 1.321352 -0.438140 -1.862326 0.654125 -0.563547 8.849802 3.553547 -0.380375 34.435112 0.983700 0.382900 13.197700 -96.516510 -6.193769 28.795340 7.395425 -16.756493 -1.132392 -0.053869 -0.713842 1.647361 -7.125000 0.000000 0.000000 94.017235 4.780559 10.658629 -9.543026 21.231127 -2.041496 0.630187 0.922598 34.177439 7.125000 0.000000 0.000000 
0.508936 17.828248 -14.114502 -1.729244 -1.900046 7.195503 -15.010315 1.937336 -14.953418 -0.244949 6.119899 16.856723 -1.022048 6.629282 -2.105307 0.096800 2.006000 5.522300 19.838764 2.307488 -14.228298 -0.593139 -7.355563 20.768908 -0.073032 -1.474502 -6.083374 -0.431100 -4.213800 11.678800 1.319517 -0.433110 -1.861975 0.648729 -0.560734 8.849307 3.557140 -0.383190 34.442703 0.985200 0.382100 13.199200 -96.575977 -6.263442 29.055744 7.451644 -16.852265 -1.149289 -0.051361 -0.714210 1.475869 -7.125000 0.000000 0.000000 94.070653 4.847499 10.902150 -9.604540 21.326363 -2.065199 0.627829 0.921956 34.014142 7.125000 0.000000 0.000000 
0.510049 17.828349 -14.113996 -1.728860 -1.904051 7.196266 -15.015572 1.942433 -14.952811 -0.245068 6.119389 16.855498 -1.021818 6.628185 -2.107263 0.096700 2.005200 5.520000 19.834018 2.306405 -14.225915 -0.592563 -7.354001 20.764628 -0.073590 -1.470704 -6.080450 -0.430700 -4.211600 11.672800 1.317884 -0.427922 -1.862026 0.644036 -0.557970 8.847288 3.560586 -0.384402 34.451152 0.986800 0.382000 13.200600 -96.636071 -6.334364 29.334272 7.510766 -16.953108 -1.167330 -0.048234 -0.714496 1.282934 -7.125000 0.000000 0.000000 94.123917 4.911845 11.167615 -9.669278 21.426675 -2.090104 0.625544 0.921248 33.830844 7.125000 0.000000 0.000000 
0.511163 17.828451 -14.113490 -1.730645 -1.908717 7.196980 -15.018272 1.946379 -14.953003 -0.245003 6.119434 16.855714 -1.021656 6.627849 -2.109299 0.096800 2.006600 5.524000 19.831674 2.306309 -14.222878 -0.591887 -7.352050 20.759195 -0.074309 -1.466703 -6.081154 -0.429900 -4.208000 11.662500 1.317108 -0.424129 -1.862543 0.640934 -0.555913 8.844059 3.558355 -0.383903 34.465943 0.985200 0.382800 13.206900 -96.698700 -6.404524 29.619466 7.574233 -17.061383 -1.186975 -0.044912 -0.714714 1.079096 -7.125000 0.000000 0.000000 94.177178 4.980588 11.440841 -9.734388 21.526882 -2.115121 0.623170 0.920803 33.641433 7.125000 0.000000 0.000000 
0.512377 17.828552 -14.112883 -1.734724 -1.914569 7.196739 -15.018916 1.949275 -14.951575 -0.244696 6.120041 16.857395 -1.022218 6.630506 -2.112991 0.096900 2.007800 5.527200 19.831388 2.304605 -14.218166 -0.590950 -7.349673 20.752834 -0.075430 -1.460034 -6.081489 -0.429700 -4.206700 11.659000 1.316559 -0.420483 -1.863164 0.636034 -0.553810 8.841252 3.551119 -0.383574 34.483656 0.980200 0.384000 13.214800 -96.763094 -6.473177 29.904489 7.641158 -17.175234 -1.207995 -0.041697 -0.714815 0.875385 -7.125000 0.000000 0.000000 94.231956 5.051043 11.716039 -9.799973 21.627452 -2.140280 0.620597 0.920430 33.455781 7.125000 0.000000 0.000000 
0.513693 17.828754 -14.112478 -1.739054 -1.922013 7.198859 -15.019334 1.947380 -14.951521 -0.244366 6.120945 16.859938 -1.023905 6.638188 -2.117921 0.097200 2.011000 5.536000 19.830701 2.309287 -14.214858 -0.590014 -7.347232 20.745977 -0.075077 -1.460940 -6.077432 -0.429400 -4.205200 11.654800 1.315732 -0.414321 -1.863802 0.629127 -0.550096 8.838305 3.544588 -0.383786 34.503386 0.975600 0.385000 13.226800 -96.829085 -6.540243 30.201460 7.715681 -17.302038 -1.231373 -0.038445 -0.715060 0.680515 -7.125000 0.000000 0.000000 94.291144 5.124362 11.985519 -9.870573 21.735371 -2.167654 0.617718 0.920198 33.275814 7.125000 0.000000 0.000000 
0.515008 17.828855 -14.111972 -1.744363 -1.929312 7.199398 -15.018519 1.944627 -14.949264 -0.243997 6.122025 16.862912 -1.025777 6.646805 -2.124801 0.097700 2.015500 5.548400 19.831443 2.312336 -14.210271 -0.589023 -7.344810 20.739079 -0.075016 -1.461824 -6.077781 -0.428600 -4.201500 11.644100 1.314914 -0.408642 -1.864255 0.620929 -0.546594 8.836173 3.538633 -0.384065 34.522253 0.971100 0.386100 13.237800 -96.895763 -6.607663 30.493249 7.792684 -17.432964 -1.256037 -0.035127 -0.715207 0.493161 -7.125000 0.000000 0.000000 94.351558 5.195544 12.269027 -9.945248 21.849554 -2.196578 0.614296 0.920475 33.083299 7.125000 0.000000 0.000000 
0.516425 17.828957 -14.111567 -1.747450 -1.937623 7.200506 -15.020562 1.942476 -14.947637 -0.243550 6.123044 16.865578 -1.027524 6.655218 -2.132330 0.098300 2.021700 5.565600 19.829338 2.314254 -14.208001 -0.588208 -7.342586 20.732831 -0.074880 -1.462139 -6.075037 -0.427900 -4.198000 11.634300 1.313449 -0.402565 -1.864746 0.611094 -0.542713 8.834193 3.531677 -0.384914 34.539594 0.965800 0.386900 13.248200 -96.961806 -6.678687 30.782251 7.870362 -17.564181 -1.280988 -0.031986 -0.715256 0.315320 -7.125000 0.000000 0.000000 94.414715 5.268002 12.555523 -10.021921 21.966521 -2.226341 0.610605 0.920855 32.894746 7.125000 0.000000 0.000000 
0.517741 17.829058 -14.111061 -1.750270 -1.945319 7.198904 -15.022948 1.941521 -14.942902 -0.243327 6.123570 16.867443 -1.029002 6.662234 -2.141146 0.098900 2.028000 5.583100 19.827100 2.312717 -14.203741 -0.587457 -7.340487 20.727203 -0.074542 -1.462181 -6.066739 -0.427300 -4.195400 11.627000 1.311879 -0.397451 -1.865066 0.600670 -0.539339 8.831390 3.528791 -0.382276 34.553296 0.963800 0.389000 13.255100 -97.026266 -6.755977 31.074247 7.945615 -17.690537 -1.305424 -0.028870 -0.715204 0.131394 -7.125000 0.000000 0.000000 94.478118 5.339006 12.858247 -10.100790 22.086783 -2.257163 0.607003 0.921215 32.693132 7.125000 0.000000 0.000000 
0.519157 17.829058 -14.110454 -1.751244 -1.951217 7.194654 -15.027383 1.943385 -14.936492 -0.242984 6.124019 16.868779 -1.029495 6.664668 -2.148674 0.099700 2.036500 5.606400 19.823291 2.305084 -14.198543 -0.586902 -7.338734 20.722571 -0.075228 -1.456710 -6.061773 -0.426500 -4.191400 11.615900 1.310214 -0.394389 -1.865187 0.590566 -0.537074 8.829198 3.521130 -0.376709 34.566665 0.960200 0.391800 13.262200 -97.087171 -6.838232 31.376607 8.017869 -17.811042 -1.328670 -0.026491 -0.715180 -0.055643 -7.125000 0.000000 0.000000 94.540810 5.413877 13.169551 -10.178656 22.205022 -2.287590 0.603260 0.921525 32.491714 7.125000 0.000000 0.000000 
